<svg width="36" height="36" fill="none" xmlns="http://www.w3.org/2000/svg"><path d="M18 36c9.941 0 18-8.059 18-18S27.941 0 18 0 0 8.059 0 18s8.059 18 18 18z" fill="url(#paint0_radial)"/><path d="M30 28a5 5 0 100-10 5 5 0 000 10z" fill="url(#paint1_radial)"/><path d="M6 28a5 5 0 100-10 5 5 0 000 10z" fill="url(#paint2_radial)"/><path d="M18 27c-4.106 0-5.336-1.456-5.336-1.456S13.98 29 18 29v-.001V29c4.02 0 5.336-3.456 5.336-3.456S22.106 27 18 27z" fill="url(#paint3_radial)"/><path d="M18 29c-3.51 0-5-2.767-5-2.767S14.058 31 18 31s5-4.767 5-4.767S21.51 29 18 29z" fill="url(#paint4_radial)"/><path d="M13.299 24.805c-.501-.276-.995.358-.608.779C13.815 26.806 15.542 28 18 28s4.185-1.194 5.309-2.416c.387-.421-.107-1.055-.608-.779A9.63 9.63 0 0118 26a9.63 9.63 0 01-4.701-1.195z" fill="url(#paint5_radial)"/><path d="M28.5 19a.5.5 0 100-1 .5.5 0 000 1z" fill="#212121"/><path d="M21.742 18.939s1.726-.944 3.258-.944 3.258.944 3.258.944l.631-.754S27.124 16 25 16c-2.124 0-3.889 2.185-3.889 2.185l.631.754z" fill="#212121"/><path d="M21.5 19a.5.5 0 100-1 .5.5 0 000 1zm-7 0a.5.5 0 100-1 .5.5 0 000 1z" fill="#212121"/><path d="M7.742 18.939s1.726-.944 3.258-.944 3.258.944 3.258.944l.631-.754S13.124 16 11 16c-2.124 0-3.889 2.185-3.889 2.185l.631.754z" fill="#212121"/><path d="M7.5 19a.5.5 0 100-1 .5.5 0 000 1z" fill="#212121"/><defs><radialGradient id="paint0_radial" cx="0" cy="0" r="1" gradientUnits="userSpaceOnUse" gradientTransform="matrix(18 0 0 18 18 18)"><stop stop-color="#FFE16E"/><stop offset=".629" stop-color="#FFD426"/><stop offset=".72" stop-color="#FDCD23"/><stop offset=".854" stop-color="#F8B919"/><stop offset="1" stop-color="#F09C0C"/></radialGradient><radialGradient id="paint1_radial" cx="0" cy="0" r="1" gradientUnits="userSpaceOnUse" gradientTransform="matrix(5 0 0 5 30 23)"><stop stop-color="#FF8400" stop-opacity=".6"/><stop offset=".999" stop-color="#FF8400" stop-opacity="0"/></radialGradient><radialGradient id="paint2_radial" cx="0" cy="0" r="1" gradientUnits="userSpaceOnUse" gradientTransform="matrix(5 0 0 5 6 23)"><stop stop-color="#FF8400" stop-opacity=".5"/><stop offset=".999" stop-color="#FF8400" stop-opacity="0"/></radialGradient><radialGradient id="paint3_radial" cx="0" cy="0" r="1" gradientUnits="userSpaceOnUse" gradientTransform="translate(17.988 23.43) scale(5.577)"><stop offset=".914" stop-color="#FFE16E"/><stop offset="1" stop-color="#FFE16E" stop-opacity="0"/></radialGradient><radialGradient id="paint4_radial" cx="0" cy="0" r="1" gradientUnits="userSpaceOnUse" gradientTransform="translate(18.046 25.778) scale(5.044)"><stop offset=".696" stop-color="#CC9000"/><stop offset="1" stop-color="#CC9000" stop-opacity="0"/></radialGradient><radialGradient id="paint5_radial" cx="0" cy="0" r="1" gradientUnits="userSpaceOnUse" gradientTransform="matrix(-5.4789 0 0 -2.93826 18.016 25.457)"><stop stop-color="#1C1911"/><stop offset=".999" stop-color="#171714"/></radialGradient></defs></svg>