<svg width="27" height="26" fill="none" xmlns="http://www.w3.org/2000/svg"><path d="M15.806 2.207a3 3 0 00-4.612 0l-2.987 3.59a1 1 0 01-.398.288L3.472 7.817a3 3 0 00-1.425 4.386l2.49 3.95a1 1 0 01.152.468l.308 4.66a3 3 0 003.73 2.71l4.527-1.147c.162-.04.33-.04.492 0l4.527 1.148a3 3 0 003.73-2.711l.308-4.66a.999.999 0 01.152-.467l2.49-3.95a3 3 0 00-1.425-4.387L19.19 6.085a1 1 0 01-.398-.289l-2.987-3.59z" fill="url(#paint0_radial)"/><path d="M15.806 2.207a3 3 0 00-4.612 0l-2.987 3.59a1 1 0 01-.398.288L3.472 7.817a3 3 0 00-1.425 4.386l2.49 3.95a1 1 0 01.152.468l.308 4.66a3 3 0 003.73 2.71l4.527-1.147c.162-.04.33-.04.492 0l4.527 1.148a3 3 0 003.73-2.711l.308-4.66a.999.999 0 01.152-.467l2.49-3.95a3 3 0 00-1.425-4.387L19.19 6.085a1 1 0 01-.398-.289l-2.987-3.59z" fill="url(#paint1_linear)"/><path d="M15.806 2.207a3 3 0 00-4.612 0l-2.987 3.59a1 1 0 01-.398.288L3.472 7.817a3 3 0 00-1.425 4.386l2.49 3.95a1 1 0 01.152.468l.308 4.66a3 3 0 003.73 2.71l4.527-1.147c.162-.04.33-.04.492 0l4.527 1.148a3 3 0 003.73-2.711l.308-4.66a.999.999 0 01.152-.467l2.49-3.95a3 3 0 00-1.425-4.387L19.19 6.085a1 1 0 01-.398-.289l-2.987-3.59z" stroke="url(#paint2_linear)" stroke-width="2"/><defs><linearGradient id="paint1_linear" x1="9.088" y1="3.574" x2="14.603" y2="14.971" gradientUnits="userSpaceOnUse"><stop offset=".044" stop-color="#FFF16F"/><stop offset="1" stop-color="#FFDC27" stop-opacity="0"/></linearGradient><linearGradient id="paint2_linear" x1="2.103" y1="1" x2="21.956" y2="24.897" gradientUnits="userSpaceOnUse"><stop stop-color="#ECD400"/><stop offset="1" stop-color="#CF7000"/></linearGradient><radialGradient id="paint0_radial" cx="0" cy="0" r="1" gradientUnits="userSpaceOnUse" gradientTransform="matrix(4.60192 11.48579 -10.07334 4.036 12.207 7.897)"><stop stop-color="#FFF971"/><stop offset=".999" stop-color="#FFB82E"/></radialGradient></defs></svg>