<svg width="24" height="18" fill="none" xmlns="http://www.w3.org/2000/svg"><path d="M24 6.6V2.4C24 1.08 22.92 0 21.6 0h-3.3c0 .48-.42.9-.9.9-.48 0-.9-.42-.9-.9H2.4C1.08 0 0 1.08 0 2.4v4.2c1.32 0 2.4 1.08 2.4 2.4 0 1.32-1.08 2.4-2.4 2.4v4.2C0 16.92 1.08 18 2.4 18h14.1c0-.48.42-.9.9-.9.48 0 .9.42.9.9h3.3c1.32 0 2.4-1.08 2.4-2.4v-4.2c-1.32 0-2.4-1.08-2.4-2.4 0-1.32 1.08-2.4 2.4-2.4zm-6.6 9.3c-.48 0-.9-.42-.9-.9 0-.48.42-.9.9-.9.48 0 .9.42.9.9 0 .48-.42.9-.9.9zm0-3c-.48 0-.9-.42-.9-.9 0-.48.42-.9.9-.9.48 0 .9.42.9.9 0 .48-.42.9-.9.9zm0-3c-.48 0-.9-.42-.9-.9 0-.48.42-.9.9-.9.48 0 .9.42.9.9 0 .48-.42.9-.9.9zm0-3c-.48 0-.9-.42-.9-.9 0-.48.42-.9.9-.9.48 0 .9.42.9.9 0 .48-.42.9-.9.9zm0-3c-.48 0-.9-.42-.9-.9 0-.48.42-.9.9-.9.48 0 .9.42.9.9 0 .48-.42.9-.9.9z" fill="#FFA726"/><path d="M10.2 4.8l1.38 2.76 3.06.42-2.22 2.16.48 3.06-2.7-1.44-2.7 1.44.48-3.06-2.22-2.16 3.06-.42L10.2 4.8z" fill="#F44336"/></svg>