<svg width="27" height="26" viewBox="0 0 27 26" fill="none" xmlns="http://www.w3.org/2000/svg">
<path d="M15.8057 2.20689C14.6063 0.765931 12.3937 0.765932 11.1943 2.20689L8.20658 5.79615C8.10014 5.92403 7.96347 6.02332 7.80896 6.08504L3.47212 7.81736C1.73104 8.51283 1.04732 10.6171 2.04711 12.2031L4.53744 16.1537C4.62617 16.2945 4.67837 16.4551 4.68933 16.6212L4.99671 21.281C5.12011 23.1518 6.9101 24.4523 8.72745 23.9916L13.2542 22.8439C13.4155 22.8031 13.5845 22.8031 13.7457 22.8439L18.2726 23.9916C20.0899 24.4523 21.8799 23.1518 22.0033 21.281L22.3107 16.6212C22.3216 16.4551 22.3738 16.2945 22.4626 16.1537L24.9529 12.2031C25.9527 10.6171 25.269 8.51283 23.5279 7.81736L19.191 6.08504C19.0365 6.02332 18.8999 5.92403 18.7934 5.79615L15.8057 2.20689Z" fill="url(#paint0_radial)"/>
<path d="M15.8057 2.20689C14.6063 0.765931 12.3937 0.765932 11.1943 2.20689L8.20658 5.79615C8.10014 5.92403 7.96347 6.02332 7.80896 6.08504L3.47212 7.81736C1.73104 8.51283 1.04732 10.6171 2.04711 12.2031L4.53744 16.1537C4.62617 16.2945 4.67837 16.4551 4.68933 16.6212L4.99671 21.281C5.12011 23.1518 6.9101 24.4523 8.72745 23.9916L13.2542 22.8439C13.4155 22.8031 13.5845 22.8031 13.7457 22.8439L18.2726 23.9916C20.0899 24.4523 21.8799 23.1518 22.0033 21.281L22.3107 16.6212C22.3216 16.4551 22.3738 16.2945 22.4626 16.1537L24.9529 12.2031C25.9527 10.6171 25.269 8.51283 23.5279 7.81736L19.191 6.08504C19.0365 6.02332 18.8999 5.92403 18.7934 5.79615L15.8057 2.20689Z" fill="url(#paint1_linear)"/>
<path d="M15.8057 2.20689C14.6063 0.765931 12.3937 0.765932 11.1943 2.20689L8.20658 5.79615C8.10014 5.92403 7.96347 6.02332 7.80896 6.08504L3.47212 7.81736C1.73104 8.51283 1.04732 10.6171 2.04711 12.2031L4.53744 16.1537C4.62617 16.2945 4.67837 16.4551 4.68933 16.6212L4.99671 21.281C5.12011 23.1518 6.9101 24.4523 8.72745 23.9916L13.2542 22.8439C13.4155 22.8031 13.5845 22.8031 13.7457 22.8439L18.2726 23.9916C20.0899 24.4523 21.8799 23.1518 22.0033 21.281L22.3107 16.6212C22.3216 16.4551 22.3738 16.2945 22.4626 16.1537L24.9529 12.2031C25.9527 10.6171 25.269 8.51283 23.5279 7.81736L19.191 6.08504C19.0365 6.02332 18.8999 5.92403 18.7934 5.79615L15.8057 2.20689Z" stroke="url(#paint2_linear)" stroke-width="2"/>
<defs>
<radialGradient id="paint0_radial" cx="0" cy="0" r="1" gradientUnits="userSpaceOnUse" gradientTransform="translate(12.2069 7.89655) rotate(68.1659) scale(12.3734 10.8518)">
<stop stop-color="#FFF971"/>
<stop offset="0.998649" stop-color="#FFB82E"/>
</radialGradient>
<linearGradient id="paint1_linear" x1="9.08824" y1="3.57353" x2="14.6029" y2="14.9706" gradientUnits="userSpaceOnUse">
<stop offset="0.0441176" stop-color="#FFF16F"/>
<stop offset="1" stop-color="#FFDC27" stop-opacity="0"/>
</linearGradient>
<linearGradient id="paint2_linear" x1="2.10294" y1="1" x2="21.9559" y2="24.8971" gradientUnits="userSpaceOnUse">
<stop stop-color="#ECD400"/>
<stop offset="1" stop-color="#CF7000"/>
</linearGradient>
</defs>
</svg>
